<?xml version="1.0" standalone="no"?>
<!DOCTYPE svg PUBLIC "-//W3C//DTD SVG 20010904//EN"
 "http://www.w3.org/TR/2001/REC-SVG-20010904/DTD/svg10.dtd">
<svg version="1.0" xmlns="http://www.w3.org/2000/svg"
 width="2160.000000pt" height="2160.000000pt" viewBox="0 0 2160.000000 2160.000000"
 preserveAspectRatio="xMidYMid meet">
<metadata>
Created by potrace 1.14, written by Peter Selinger 2001-2017
</metadata>
<g transform="translate(0.000000,2160.000000) scale(0.100000,-0.100000)"
fill="#000000" stroke="none">
<path d="M0 10800 l0 -10800 10800 0 10800 0 0 10800 0 10800 -10800 0 -10800
0 0 -10800z m7842 -162 c3 -1070 3 -1094 23 -1132 32 -63 64 -80 153 -84 48
-3 99 2 135 11 68 18 64 34 42 -163 -25 -235 -19 -215 -76 -240 -112 -48 -196
-63 -349 -63 -328 -1 -480 97 -557 358 -16 56 -18 143 -21 1233 l-3 1172 325
0 325 0 3 -1092z m-3994 865 c116 -330 872 -2493 872 -2497 0 -3 -152 -6 -338
-6 l-337 0 -85 283 -86 282 -439 3 -440 2 -48 -157 c-27 -87 -66 -215 -88
-285 l-40 -128 -329 0 c-182 0 -330 3 -330 7 0 3 199 572 442 1265 l443 1258
396 0 397 0 10 -27z m5342 -278 l0 -305 285 0 285 0 0 -230 0 -230 -282 -2
-283 -3 -3 -405 c-1 -259 1 -423 8 -455 15 -67 46 -111 100 -138 39 -19 61
-22 166 -22 120 0 122 1 191 36 l70 36 32 -191 c17 -105 31 -196 31 -203 0
-19 -155 -90 -245 -113 -283 -72 -605 -38 -790 85 -68 46 -107 90 -145 165
-63 125 -63 126 -69 690 l-6 515 -162 3 -163 2 0 230 0 230 165 0 165 0 0 215
0 214 38 11 c71 21 597 168 605 169 4 1 7 -136 7 -304z m-3111 -290 c305 -59
514 -230 588 -481 14 -51 18 -124 22 -524 6 -437 7 -467 25 -497 27 -44 62
-56 150 -51 l75 3 -4 -35 c-3 -19 -12 -100 -20 -180 -11 -110 -19 -148 -31
-157 -65 -48 -369 -57 -488 -14 -121 43 -196 107 -241 202 l-22 49 -18 -26
c-64 -98 -161 -167 -301 -213 -273 -90 -605 -52 -786 91 -123 96 -187 292
-159 479 31 203 175 350 406 417 59 18 739 162 760 162 4 0 5 37 3 83 -5 96
-27 145 -87 200 -69 63 -172 81 -286 52 -118 -31 -188 -100 -223 -217 -12 -42
-21 -57 -32 -53 -19 5 -529 125 -534 125 -11 0 30 124 62 190 54 111 195 250
313 308 97 48 244 89 369 102 116 12 357 4 459 -15z m5047 14 c365 -40 629
-218 774 -520 129 -271 129 -667 0 -938 -154 -320 -441 -500 -843 -527 -118
-7 -281 8 -394 36 -336 86 -580 331 -665 666 -20 79 -23 113 -22 299 0 194 2
217 26 306 128 474 570 740 1124 678z m8354 -979 l0 -970 -280 0 -280 0 0 670
0 670 -160 0 -160 0 0 -670 0 -670 -180 0 -180 0 0 370 0 370 -160 0 -160 0 0
-370 0 -370 -180 0 -180 0 0 370 0 370 -160 0 -160 0 0 -370 0 -370 -180 0
-180 0 0 370 0 370 -160 0 -160 0 0 -370 0 -370 -180 0 -180 0 0 670 0 670
-160 0 -160 0 0 -670 0 -670 -180 0 -180 0 0 370 0 370 -160 0 -160 0 0 -370
0 -370 -180 0 -180 0 0 370 0 370 -160 0 -160 0 0 -370 0 -370 -180 0 -180 0
0 370 0 370 -160 0 -160 0 0 -370 0 -370 -180 0 -180 0 0 670 0 670 -160 0
-160 0 0 -670 0 -670 -290 0 -290 0 0 970 0 970 3450 0 3450 0 0 -970z m-6791
-1490 c112 -27 201 -67 201 -91 0 -24 -58 -380 -63 -385 -2 -2 -30 6 -63 18
-86 33 -257 32 -330 -1 -104 -46 -135 -104 -142 -268 l-5 -113 292 0 291 0 0
-230 0 -230 -270 0 -270 0 0 -730 0 -730 -325 0 -325 0 -2 728 -3 727 -152 3
-153 3 0 229 0 230 155 0 155 0 0 140 c0 171 18 268 67 370 89 182 301 315
558 349 100 14 285 4 384 -19z m-9609 -1495 l0 -1265 -330 0 -330 0 0 1265 0
1265 330 0 330 0 0 -1265z m3680 960 l0 -305 285 0 285 0 0 -230 0 -230 -282
-2 -283 -3 -3 -405 c-1 -259 1 -423 8 -455 15 -67 46 -111 100 -138 39 -19 61
-22 166 -22 120 0 122 1 191 36 l70 36 32 -191 c17 -105 31 -196 31 -203 0
-19 -155 -90 -245 -113 -283 -72 -605 -38 -790 85 -68 46 -107 90 -145 165
-63 125 -63 126 -69 690 l-6 515 -162 3 -163 2 0 230 0 230 165 0 165 0 0 215
0 214 38 11 c71 21 597 168 605 169 4 1 7 -136 7 -304z m-1795 -275 c108 -15
202 -49 281 -102 95 -63 148 -124 195 -223 69 -144 69 -150 69 -930 l0 -695
-325 0 -325 0 0 588 c0 605 -4 671 -41 743 -58 115 -229 161 -372 100 -62 -27
-130 -91 -157 -149 -45 -94 -49 -161 -50 -739 l0 -543 -325 0 -325 0 0 960 0
960 289 0 290 0 5 -52 c3 -29 8 -115 12 -192 l6 -138 37 66 c50 93 106 160
176 213 151 116 348 162 560 133z m3720 0 c395 -45 666 -262 771 -617 30 -101
41 -275 29 -436 l-7 -97 -654 0 c-407 0 -654 -4 -654 -10 0 -27 25 -121 45
-165 60 -137 174 -200 360 -200 181 0 283 60 360 212 3 7 510 -166 513 -175 6
-18 -41 -111 -86 -172 -247 -329 -900 -432 -1342 -210 -260 130 -425 368 -470
678 -20 134 -8 395 23 513 45 173 130 313 266 441 197 186 515 275 846 238z
m2473 -5 c37 -9 73 -19 81 -24 11 -7 8 -52 -19 -272 -17 -145 -33 -265 -34
-266 0 -1 -33 5 -71 13 -100 22 -272 15 -345 -14 -113 -45 -200 -135 -237
-245 -15 -46 -18 -113 -21 -594 l-3 -543 -324 0 -325 0 0 960 0 960 289 0 288
0 7 -132 c4 -73 9 -163 13 -200 l6 -67 49 101 c89 180 228 292 402 323 97 18
165 18 244 0z m3057 -14 c179 -38 289 -92 404 -197 96 -90 152 -192 183 -338
6 -30 13 -237 17 -504 l6 -454 34 -30 c33 -29 36 -30 118 -26 l85 3 -5 -40
c-3 -22 -11 -96 -17 -165 -6 -69 -15 -135 -20 -146 -14 -37 -90 -56 -240 -61
-117 -5 -148 -2 -220 16 -141 35 -231 104 -284 215 -23 49 -24 49 -36 25 -7
-13 -36 -48 -64 -77 -226 -239 -803 -256 -1042 -30 -105 99 -146 201 -146 368
0 210 84 355 258 447 94 50 158 67 543 148 200 41 368 78 374 82 11 7 3 108
-13 164 -13 47 -81 124 -134 152 -55 29 -186 31 -266 3 -82 -28 -149 -100
-180 -193 -18 -55 -28 -72 -40 -68 -8 2 -129 31 -269 64 -139 33 -256 62 -259
65 -10 11 29 130 66 201 25 48 63 97 122 156 74 75 100 94 191 138 171 83 338
113 594 105 93 -2 184 -11 240 -23z m2293 -1 c263 -53 463 -191 566 -390 33
-63 72 -168 65 -174 -15 -12 -591 -196 -599 -191 -5 3 -10 15 -10 26 0 35 -41
141 -71 185 -16 24 -51 56 -76 71 -40 23 -61 28 -138 31 -74 3 -100 0 -146
-17 -112 -43 -179 -128 -216 -278 -24 -96 -24 -380 0 -476 32 -128 90 -207
185 -254 52 -25 67 -28 167 -28 122 0 162 13 223 75 37 36 79 122 88 179 5 29
11 41 23 41 9 -1 140 -41 291 -90 182 -58 276 -93 278 -103 4 -21 -32 -123
-64 -182 -15 -27 -68 -91 -118 -140 -79 -79 -105 -98 -196 -143 -129 -63 -227
-89 -393 -104 -231 -21 -480 18 -653 102 -276 133 -448 374 -494 688 -19 124
-8 405 18 504 45 169 108 282 226 406 143 151 356 253 586 282 113 14 343 4
458 -20z m2029 19 c297 -33 540 -177 674 -400 106 -176 143 -374 123 -657 l-7
-92 -655 0 -654 0 7 -47 c15 -104 70 -205 138 -257 83 -64 237 -90 367 -62
114 24 170 68 245 190 9 15 38 7 264 -68 139 -47 256 -88 259 -91 3 -2 -12
-39 -32 -80 -143 -288 -539 -457 -976 -416 -272 25 -464 103 -627 255 -130
121 -213 275 -256 476 -28 135 -28 376 1 513 63 299 219 507 477 632 200 98
408 131 652 104z m-6642 -2483 c124 -38 186 -123 193 -267 10 -207 -75 -305
-287 -330 -182 -22 -346 18 -412 101 -58 72 -75 248 -34 347 37 88 112 142
227 163 72 12 251 5 313 -14z m-8333 -861 c109 -352 227 -752 263 -890 36
-137 70 -259 74 -270 11 -26 7 -40 86 255 55 201 262 893 431 1438 l35 112
450 0 449 0 0 -1265 0 -1265 -291 0 -292 0 7 838 c3 460 9 898 12 972 3 85 2
129 -4 120 -5 -8 -148 -446 -318 -972 l-308 -958 -268 0 c-147 0 -268 2 -268
4 0 11 -621 1930 -626 1935 -4 3 -4 -75 0 -174 3 -99 9 -537 12 -972 l7 -793
-297 0 -296 0 0 1265 0 1265 472 -2 472 -3 198 -640z m5298 340 l0 -305 285 0
285 0 0 -230 0 -230 -282 -2 -283 -3 -3 -405 c-1 -259 1 -423 8 -455 15 -67
46 -111 100 -138 39 -19 61 -22 166 -22 120 0 122 1 191 36 l70 36 32 -191
c17 -105 31 -196 31 -203 0 -19 -155 -90 -245 -113 -283 -72 -605 -38 -790 85
-68 46 -107 90 -145 165 -63 125 -63 126 -69 690 l-6 515 -162 3 -163 2 0 230
0 230 165 0 165 0 0 215 0 214 38 11 c71 21 597 168 605 169 4 1 7 -136 7
-304z m-1835 -294 c349 -73 596 -318 670 -667 19 -84 24 -302 11 -406 l-7 -58
-649 0 c-357 0 -651 -4 -654 -8 -10 -17 26 -139 58 -197 39 -71 105 -125 185
-152 82 -27 246 -24 322 5 69 27 131 79 166 140 15 26 28 48 29 50 1 2 119
-35 263 -83 l260 -86 -10 -27 c-89 -234 -331 -404 -659 -463 -120 -22 -373
-16 -499 10 -420 88 -673 352 -737 766 -23 146 -14 378 19 505 44 169 110 289
226 412 137 146 353 249 581 278 106 13 319 4 425 -19z m4054 4 c50 -15 53
-18 48 -43 -3 -15 -17 -133 -32 -262 -16 -129 -31 -238 -34 -242 -3 -4 -33 0
-66 7 -76 19 -235 19 -301 1 -123 -32 -232 -125 -276 -234 -23 -57 -23 -58
-26 -609 l-3 -553 -324 0 -325 0 0 960 0 960 284 0 284 0 6 -52 c3 -29 8 -105
11 -168 3 -63 8 -130 11 -149 l6 -35 22 56 c36 88 72 144 142 217 85 90 190
145 319 165 54 8 199 -3 254 -19z m2626 -4 c310 -64 545 -258 619 -510 9 -30
15 -55 13 -56 -6 -5 -583 -195 -593 -195 -5 0 -16 28 -23 62 -22 109 -78 194
-155 236 -24 13 -56 17 -141 17 -100 0 -115 -2 -161 -27 -94 -50 -153 -138
-187 -282 -19 -82 -15 -387 7 -465 36 -131 96 -209 195 -255 38 -17 65 -21
156 -21 128 0 166 15 232 88 36 42 83 149 83 190 0 9 6 17 14 17 18 0 565
-175 573 -184 4 -3 -1 -32 -11 -64 -71 -227 -281 -411 -551 -481 -127 -33
-314 -47 -458 -33 -392 37 -666 206 -807 497 -59 120 -85 221 -100 374 -23
249 25 500 132 678 44 74 166 203 243 258 120 86 302 154 465 175 109 13 349
3 455 -19z m2095 4 c205 -34 392 -122 516 -243 l65 -62 -152 -173 c-84 -94
-154 -174 -155 -176 -2 -2 -33 24 -68 57 -78 73 -195 133 -316 163 -102 26
-266 23 -338 -6 -89 -36 -120 -121 -67 -184 37 -43 105 -65 372 -117 365 -70
474 -112 591 -227 97 -94 142 -202 142 -335 -1 -178 -55 -308 -185 -438 -67
-68 -96 -89 -175 -127 -308 -148 -804 -139 -1149 19 -98 45 -224 131 -285 193
l-50 51 20 22 c12 13 74 86 139 163 65 77 124 147 131 154 12 13 22 7 71 -43
83 -83 187 -148 301 -187 90 -30 107 -33 232 -33 157 -1 209 11 257 59 43 43
47 107 9 148 -37 40 -83 54 -326 104 -124 25 -265 59 -315 75 -310 100 -454
270 -455 533 -1 325 287 575 718 625 105 12 356 4 472 -15z m-3760 -975 l0
-960 -325 0 -325 0 0 960 0 960 325 0 325 0 0 -960z m7280 0 l0 -960 -960 0
-960 0 0 960 0 960 960 0 960 0 0 -960z"/>
<path d="M3421 10994 c-5 -22 -30 -115 -55 -209 -24 -93 -85 -300 -135 -458
-50 -159 -91 -292 -91 -298 0 -5 118 -9 295 -9 162 0 295 3 295 8 0 4 -38 133
-85 287 -47 154 -113 377 -146 495 -33 118 -62 216 -64 218 -2 2 -8 -13 -14
-34z"/>
<path d="M5850 9778 c-277 -58 -340 -98 -340 -215 0 -78 21 -115 83 -149 45
-25 62 -28 127 -28 101 2 179 32 240 94 64 63 82 119 78 242 l-3 94 -185 -38z"/>
<path d="M10859 10474 c-55 -16 -130 -80 -164 -138 -50 -86 -68 -183 -68 -376
0 -193 18 -290 68 -376 34 -57 106 -119 162 -138 60 -20 174 -20 243 0 74 22
158 106 189 189 72 188 67 515 -10 672 -36 74 -110 145 -176 167 -57 20 -181
20 -244 0z"/>
<path d="M8425 7207 c-126 -42 -198 -127 -239 -282 -7 -29 -11 -56 -8 -59 3
-3 160 -6 349 -6 l343 0 0 28 c0 39 -23 120 -48 168 -57 111 -131 156 -267
161 -56 2 -105 -2 -130 -10z"/>
<path d="M13985 6500 c-199 -42 -237 -54 -286 -85 -94 -61 -93 -217 3 -275
108 -65 291 -36 385 62 52 54 74 117 80 228 3 53 2 99 -3 102 -5 2 -85 -12
-179 -32z"/>
<path d="M18265 7203 c-116 -35 -191 -124 -229 -270 -9 -34 -16 -64 -16 -67 0
-3 158 -6 351 -6 l352 0 -6 43 c-17 116 -70 219 -138 264 -79 52 -211 68 -314
36z"/>
<path d="M6633 3921 c-119 -41 -206 -155 -229 -301 l-7 -40 352 0 352 0 -7 38
c-40 221 -146 323 -337 322 -42 -1 -93 -8 -124 -19z"/>
</g>
</svg>
