<svg version="1" xmlns="http://www.w3.org/2000/svg" width="472" height="472" viewBox="0 0 354.000000 354.000000"><path d="M159 1.1C76.6 10.1 12.2 72.9 1.5 154.7c-8 60.6 17 122.1 65 160.3 82.1 65.2 201.9 45.5 258.9-42.7 11-17.1 20-39.3 24.8-61.3 2-9.2 2.2-13.3 2.2-34 0-26.7-1.1-34.3-8.5-56.4C325.2 64.2 278.5 20.7 221 6c-19.1-4.9-44.1-6.9-62-4.9zm110.2 95.5c7.4 3.7 11.1 9.9 11.1 18.4 0 9.4-5.4 16.9-14.2 19.9-16.7 5.6-32.6-12.3-25.2-28.5 2.1-4.5 8.1-10 12.6-11.4 4-1.2 11.6-.5 15.7 1.6zm-159 62.2l.3 60.9 3 4.9c2.4 3.7 4.5 5.6 9 7.9 5.4 2.8 6.6 3 16.5 3s11.1-.2 16.5-3c4.5-2.3 6.6-4.2 9-7.9l3-4.9.3-60.9.3-60.8H205v61.7c0 67.4-.3 70.5-5.7 80.5-4.5 8.2-11.2 14.2-21.6 19.2-13.9 6.7-20.4 8-38.7 8-18.3 0-24.8-1.3-38.7-8-10.4-5-17.1-11-21.6-19.2-5.4-10-5.7-13.1-5.7-80.5V98h36.9l.3 60.8zm156.1-16.7c5.3 1.4 12.2 8.3 13.8 13.7 1.1 3.9.7 9.2-3.5 47.5-2.7 23.8-5.2 45.2-5.6 47.7-1.8 9.7-11.8 13.4-18.5 6.7-2-2-3.6-4.8-3.9-6.8-1.4-8.2-9.6-84.3-9.6-88.9 0-14.1 13.3-23.8 27.3-19.9z"/></svg>